<?xml version="1.0" encoding="UTF-8"?>
<svg width="1000px" height="1000px" viewBox="0 0 1000 1000" version="1.1" xmlns="http://www.w3.org/2000/svg" xmlns:xlink="http://www.w3.org/1999/xlink">
    <!-- Generator: Sketch 54.1 (76490) - https://sketchapp.com -->
    <title>编组 88</title>
    <desc>Created with Sketch.</desc>
    <defs>
        <linearGradient x1="48.8603994%" y1="22.1475143%" x2="53.1970416%" y2="127.940777%" id="linearGradient-1">
            <stop stop-color="#FFFFFF" stop-opacity="0" offset="0%"></stop>
            <stop stop-color="#FFFFFF" offset="95%"></stop>
        </linearGradient>
        <linearGradient x1="51.0994315%" y1="104.666594%" x2="49.2116272%" y2="11.0993613%" id="linearGradient-2">
            <stop stop-color="#FFFFFF" stop-opacity="0" offset="0%"></stop>
            <stop stop-color="#FFFFFF" offset="95%"></stop>
        </linearGradient>
        <linearGradient x1="47.8552822%" y1="15.3929702%" x2="53.2908828%" y2="103.185022%" id="linearGradient-3">
            <stop stop-color="#FFFFFF" stop-opacity="0" offset="0%"></stop>
            <stop stop-color="#FFFFFF" offset="95%"></stop>
        </linearGradient>
        <linearGradient x1="53.8171263%" y1="34.4845603%" x2="48.3018868%" y2="57.0112401%" id="linearGradient-4">
            <stop stop-color="#FFFFFF" stop-opacity="0" offset="0%"></stop>
            <stop stop-color="#FFFFFF" offset="99%"></stop>
        </linearGradient>
        <linearGradient x1="450.784593%" y1="203.875759%" x2="441.749881%" y2="139.782211%" id="linearGradient-5">
            <stop stop-color="#FFFFFF" stop-opacity="0" offset="0%"></stop>
            <stop stop-color="#FFFFFF" offset="99%"></stop>
        </linearGradient>
        <linearGradient x1="177.361342%" y1="65.1884674%" x2="174.48995%" y2="58.8360886%" id="linearGradient-6">
            <stop stop-color="#FFFFFF" stop-opacity="0" offset="0%"></stop>
            <stop stop-color="#FFFFFF" offset="99%"></stop>
        </linearGradient>
        <linearGradient x1="276.208378%" y1="97.9912835%" x2="271.13319%" y2="77.8319793%" id="linearGradient-7">
            <stop stop-color="#FFFFFF" stop-opacity="0" offset="0%"></stop>
            <stop stop-color="#FFFFFF" offset="99%"></stop>
        </linearGradient>
        <linearGradient x1="341.85403%" y1="126.337002%" x2="335.281909%" y2="93.8383604%" id="linearGradient-8">
            <stop stop-color="#FFFFFF" stop-opacity="0" offset="0%"></stop>
            <stop stop-color="#FFFFFF" offset="99%"></stop>
        </linearGradient>
        <linearGradient x1="295.181422%" y1="101.773345%" x2="289.637155%" y2="79.246665%" id="linearGradient-9">
            <stop stop-color="#FFFFFF" stop-opacity="0" offset="0%"></stop>
            <stop stop-color="#FFFFFF" offset="99%"></stop>
        </linearGradient>
        <linearGradient x1="342.382271%" y1="116.235931%" x2="335.83795%" y2="87.3196957%" id="linearGradient-10">
            <stop stop-color="#FFFFFF" stop-opacity="0" offset="0%"></stop>
            <stop stop-color="#FFFFFF" offset="99%"></stop>
        </linearGradient>
        <linearGradient x1="367.857143%" y1="140.141467%" x2="360.714286%" y2="100.10801%" id="linearGradient-11">
            <stop stop-color="#FFFFFF" stop-opacity="0" offset="0%"></stop>
            <stop stop-color="#FFFFFF" offset="99%"></stop>
        </linearGradient>
        <linearGradient x1="203.970856%" y1="68.9796129%" x2="200.528233%" y2="60.5155452%" id="linearGradient-12">
            <stop stop-color="#FFFFFF" stop-opacity="0" offset="0%"></stop>
            <stop stop-color="#FFFFFF" offset="99%"></stop>
        </linearGradient>
        <linearGradient x1="294.397678%" y1="93.475914%" x2="288.882438%" y2="70.9492342%" id="linearGradient-13">
            <stop stop-color="#FFFFFF" stop-opacity="0" offset="0%"></stop>
            <stop stop-color="#FFFFFF" offset="99%"></stop>
        </linearGradient>
        <linearGradient x1="450.784593%" y1="170.75032%" x2="441.749881%" y2="106.650446%" id="linearGradient-14">
            <stop stop-color="#FFFFFF" stop-opacity="0" offset="0%"></stop>
            <stop stop-color="#FFFFFF" offset="99%"></stop>
        </linearGradient>
        <linearGradient x1="177.361342%" y1="61.9044405%" x2="174.48995%" y2="55.5520618%" id="linearGradient-15">
            <stop stop-color="#FFFFFF" stop-opacity="0" offset="0%"></stop>
            <stop stop-color="#FFFFFF" offset="99%"></stop>
        </linearGradient>
        <linearGradient x1="276.208378%" y1="87.5713312%" x2="271.13319%" y2="67.4080468%" id="linearGradient-16">
            <stop stop-color="#FFFFFF" stop-opacity="0" offset="0%"></stop>
            <stop stop-color="#FFFFFF" offset="99%"></stop>
        </linearGradient>
        <linearGradient x1="341.85403%" y1="109.54716%" x2="335.281909%" y2="77.0453108%" id="linearGradient-17">
            <stop stop-color="#FFFFFF" stop-opacity="0" offset="0%"></stop>
            <stop stop-color="#FFFFFF" offset="99%"></stop>
        </linearGradient>
        <linearGradient x1="295.181422%" y1="90.1275939%" x2="289.637155%" y2="67.600914%" id="linearGradient-18">
            <stop stop-color="#FFFFFF" stop-opacity="0" offset="0%"></stop>
            <stop stop-color="#FFFFFF" offset="99%"></stop>
        </linearGradient>
        <linearGradient x1="342.382271%" y1="101.289788%" x2="335.83795%" y2="72.3735521%" id="linearGradient-19">
            <stop stop-color="#FFFFFF" stop-opacity="0" offset="0%"></stop>
            <stop stop-color="#FFFFFF" offset="99%"></stop>
        </linearGradient>
        <linearGradient x1="367.857143%" y1="119.447042%" x2="360.714286%" y2="79.4135855%" id="linearGradient-20">
            <stop stop-color="#FFFFFF" stop-opacity="0" offset="0%"></stop>
            <stop stop-color="#FFFFFF" offset="99%"></stop>
        </linearGradient>
        <linearGradient x1="203.970856%" y1="64.6051327%" x2="200.528233%" y2="56.1402295%" id="linearGradient-21">
            <stop stop-color="#FFFFFF" stop-opacity="0" offset="0%"></stop>
            <stop stop-color="#FFFFFF" offset="99%"></stop>
        </linearGradient>
        <linearGradient x1="294.397678%" y1="81.8346097%" x2="288.882438%" y2="59.3101532%" id="linearGradient-22">
            <stop stop-color="#FFFFFF" stop-opacity="0" offset="0%"></stop>
            <stop stop-color="#FFFFFF" offset="99%"></stop>
        </linearGradient>
        <linearGradient x1="450.784593%" y1="137.624882%" x2="441.749881%" y2="73.525008%" id="linearGradient-23">
            <stop stop-color="#FFFFFF" stop-opacity="0" offset="0%"></stop>
            <stop stop-color="#FFFFFF" offset="99%"></stop>
        </linearGradient>
        <linearGradient x1="177.361342%" y1="58.6216676%" x2="174.48995%" y2="52.2699158%" id="linearGradient-24">
            <stop stop-color="#FFFFFF" stop-opacity="0" offset="0%"></stop>
            <stop stop-color="#FFFFFF" offset="99%"></stop>
        </linearGradient>
        <linearGradient x1="276.208378%" y1="77.1513789%" x2="271.13319%" y2="56.9880945%" id="linearGradient-25">
            <stop stop-color="#FFFFFF" stop-opacity="0" offset="0%"></stop>
            <stop stop-color="#FFFFFF" offset="99%"></stop>
        </linearGradient>
        <linearGradient x1="341.85403%" y1="92.7509022%" x2="335.281909%" y2="60.2490532%" id="linearGradient-26">
            <stop stop-color="#FFFFFF" stop-opacity="0" offset="0%"></stop>
            <stop stop-color="#FFFFFF" offset="99%"></stop>
        </linearGradient>
        <linearGradient x1="295.181422%" y1="78.4885128%" x2="289.637155%" y2="55.961833%" id="linearGradient-27">
            <stop stop-color="#FFFFFF" stop-opacity="0" offset="0%"></stop>
            <stop stop-color="#FFFFFF" offset="99%"></stop>
        </linearGradient>
        <linearGradient x1="342.382271%" y1="86.3464982%" x2="335.83795%" y2="57.4302625%" id="linearGradient-28">
            <stop stop-color="#FFFFFF" stop-opacity="0" offset="0%"></stop>
            <stop stop-color="#FFFFFF" offset="99%"></stop>
        </linearGradient>
        <linearGradient x1="367.857143%" y1="98.7565695%" x2="360.714286%" y2="58.7191612%" id="linearGradient-29">
            <stop stop-color="#FFFFFF" stop-opacity="0" offset="0%"></stop>
            <stop stop-color="#FFFFFF" offset="99%"></stop>
        </linearGradient>
        <linearGradient x1="203.970856%" y1="60.2298171%" x2="200.528233%" y2="51.7649139%" id="linearGradient-30">
            <stop stop-color="#FFFFFF" stop-opacity="0" offset="0%"></stop>
            <stop stop-color="#FFFFFF" offset="99%"></stop>
        </linearGradient>
        <linearGradient x1="0.157599648%" y1="50.0645643%" x2="99.9963699%" y2="50.0645643%" id="linearGradient-31">
            <stop stop-color="#E5C6D6" offset="0%"></stop>
            <stop stop-color="#EAD4D0" offset="42%"></stop>
            <stop stop-color="#F0E9CB" offset="100%"></stop>
        </linearGradient>
        <linearGradient x1="-0.130958186%" y1="50.038758%" x2="100.054988%" y2="50.038758%" id="linearGradient-32">
            <stop stop-color="#E5C6D6" offset="0%"></stop>
            <stop stop-color="#EAD4D0" offset="42%"></stop>
            <stop stop-color="#F0E9CB" offset="100%"></stop>
        </linearGradient>
        <linearGradient x1="-0.291606646%" y1="49.9114649%" x2="99.7692962%" y2="49.9114649%" id="linearGradient-33">
            <stop stop-color="#E5C6D6" offset="0%"></stop>
            <stop stop-color="#EAD4D0" offset="42%"></stop>
            <stop stop-color="#F0E9CB" offset="100%"></stop>
        </linearGradient>
        <linearGradient x1="-0.435759331%" y1="49.7843136%" x2="99.7806048%" y2="49.7843136%" id="linearGradient-34">
            <stop stop-color="#E5C6D6" offset="0%"></stop>
            <stop stop-color="#EAD4D0" offset="42%"></stop>
            <stop stop-color="#F0E9CB" offset="100%"></stop>
        </linearGradient>
        <linearGradient x1="-0.00859097584%" y1="49.9990858%" x2="100.102726%" y2="49.9990858%" id="linearGradient-35">
            <stop stop-color="#E5C6D6" offset="0%"></stop>
            <stop stop-color="#EAD4D0" offset="42%"></stop>
            <stop stop-color="#F0E9CB" offset="100%"></stop>
        </linearGradient>
        <linearGradient x1="-0.0116387337%" y1="49.998368%" x2="100%" y2="49.998368%" id="linearGradient-36">
            <stop stop-color="#3158D3" offset="0%"></stop>
            <stop stop-color="#306EF3" offset="100%"></stop>
        </linearGradient>
        <linearGradient x1="0%" y1="50.0075169%" x2="100.075387%" y2="50.0075169%" id="linearGradient-37">
            <stop stop-color="#010101" stop-opacity="0" offset="0%"></stop>
            <stop stop-color="#010101" offset="95%"></stop>
        </linearGradient>
        <linearGradient x1="0%" y1="49.9877059%" x2="100%" y2="49.9877059%" id="linearGradient-38">
            <stop stop-color="#010101" stop-opacity="0" offset="0%"></stop>
            <stop stop-color="#010101" offset="95%"></stop>
        </linearGradient>
        <linearGradient x1="50.9452485%" y1="18.6242355%" x2="46.4910638%" y2="162.130031%" id="linearGradient-39">
            <stop stop-color="#010101" stop-opacity="0" offset="0%"></stop>
            <stop stop-color="#010101" offset="95%"></stop>
        </linearGradient>
        <linearGradient x1="44.3146837%" y1="86.2991632%" x2="59.0429339%" y2="-31.7113059%" id="linearGradient-40">
            <stop stop-color="#010101" stop-opacity="0" offset="0%"></stop>
            <stop stop-color="#010101" offset="95%"></stop>
        </linearGradient>
        <linearGradient x1="50.509165%" y1="56.4231695%" x2="49.454894%" y2="43.3903337%" id="linearGradient-41">
            <stop stop-color="#010101" stop-opacity="0" offset="0%"></stop>
            <stop stop-color="#010101" offset="95%"></stop>
        </linearGradient>
    </defs>
    <g id="上传" stroke="none" stroke-width="1" fill="none" fill-rule="evenodd">
        <g id="画板" transform="translate(-1628.000000, -2557.000000)">
            <g id="编组-88" transform="translate(1628.000000, 2557.000000)">
                <rect id="矩形复制-28" x="0" y="0" width="1000" height="1000"></rect>
                <g id="编组-29" transform="translate(81.000000, 76.000000)">
                    <path d="M221.056226,789.755746 C217.622161,793.462112 223.252158,798.618794 228.06452,800.414425 C259.463863,812.254457 292.794672,818.339864 326.414257,818.37073 L320.690816,827.970447 C373.387093,842.389845 429.035507,842.675958 481.881596,828.799199 L473.751974,816.367911 L520.96452,814.065821 C528.463395,813.720507 554.767862,816.759266 559.743751,810.198309 C574.064033,791.298147 515.778382,790.561478 509.517639,790.308248 C447.330703,787.745254 385.104832,786.755355 322.840027,787.338551 C305.864379,787.492024 288.888732,787.760601 271.913085,788.144283 C263.876907,788.420534 226.055476,784.50698 221.056226,789.755746 Z" id="路径" fill="#207DFE" fill-rule="nonzero" opacity="0.42"></path>
                    <path d="M487.132678,616.456184 C485.869653,641.436683 484.364938,666.46402 482.618532,691.538195 C482.099355,704.211861 480.455627,716.814194 477.706767,729.196297 C475.862266,736.557707 473.25991,743.707624 469.9415,750.531204 C468.514749,753.458607 466.479875,756.64362 463.275533,756.971489 C459.229174,757.393035 456.422451,753.06048 454.972311,749.243147 C447.745,730.507773 447.745,709.992539 447.277212,689.945689 C447.012133,679.578782 446.598921,669.204068 446.037576,658.821548 C445.359285,646.292267 444.002702,632.73254 435.535755,623.45853 C432.962925,620.648224 429.828751,618.353141 427.302701,615.472577 C416.987994,603.762968 420.075389,584.020568 431.185334,572.990116 C439.816007,564.442102 464.86601,553.154039 476.958308,560.226643 C491.319373,568.610723 487.81097,602.943295 487.132678,616.456184 Z" id="路径" fill="#606161" fill-rule="nonzero"></path>
                    <path d="M415.114991,573.030967 C418.706613,578.765384 420.390942,585.503643 419.923535,592.267829 C419.342793,612.604608 407.356278,630.601136 401.339791,650.04862 C392.326675,679.418768 397.344286,710.89514 398.250244,741.716243 C398.669451,745.960303 398.145735,750.245155 396.717085,754.259987 C395.163366,758.335091 391.270497,761.01796 386.93739,760.999909 C383.87183,760.426025 381.111385,758.765736 379.155447,756.319408 C364.38137,740.405703 364.869194,716.137302 362.430077,694.513385 C359.688975,670.432205 352.278707,647.170112 345.960234,623.791007 C343.102984,613.236476 340.43157,602.424517 341.105231,591.518949 C341.778892,580.61338 346.331909,569.403579 355.275336,563.225317 C371.512882,552.038918 403.523381,556.298174 415.114991,573.030967 Z" id="路径" fill="#606161" fill-rule="nonzero"></path>
                    <rect id="矩形" fill="#207DFE" fill-rule="nonzero" opacity="0.52" transform="translate(156.000000, 183.000000) rotate(-180.000000) translate(-156.000000, -183.000000) " x="0" y="11" width="312" height="344" rx="12.14"></rect>
                    <rect id="矩形" fill="url(#linearGradient-1)" fill-rule="nonzero" transform="translate(156.000000, 183.000000) rotate(-180.000000) translate(-156.000000, -183.000000) " x="0" y="11" width="312" height="344" rx="12.14"></rect>
                    <rect id="矩形" fill="#207DFE" fill-rule="nonzero" opacity="0.52" transform="translate(664.500000, 182.500000) rotate(-180.000000) translate(-664.500000, -182.500000) " x="491" y="76" width="347" height="213" rx="11.56"></rect>
                    <rect id="矩形" fill="#207DFE" fill-rule="nonzero" opacity="0.52" transform="translate(521.000000, 66.500000) rotate(-180.000000) translate(-521.000000, -66.500000) " x="412" y="0" width="218" height="133" rx="7.26"></rect>
                    <rect id="矩形" fill="url(#linearGradient-2)" fill-rule="nonzero" transform="translate(521.000000, 66.500000) rotate(-180.000000) translate(-521.000000, -66.500000) " x="412" y="0" width="218" height="133" rx="7.26"></rect>
                    <rect id="矩形" fill="#207DFE" fill-rule="nonzero" opacity="0.52" transform="translate(400.500000, 528.000000) rotate(-180.000000) translate(-400.500000, -528.000000) " x="137" y="515" width="527" height="26"></rect>
                    <rect id="矩形" fill="#207DFE" fill-rule="nonzero" transform="translate(411.500000, 333.000000) rotate(-180.000000) translate(-411.500000, -333.000000) " x="210" y="184" width="403" height="298" rx="12.56"></rect>
                    <rect id="矩形" fill="url(#linearGradient-3)" fill-rule="nonzero" transform="translate(411.500000, 333.000000) rotate(-180.000000) translate(-411.500000, -333.000000) " x="210" y="184" width="403" height="298" rx="12.56"></rect>
                    <rect id="矩形" fill="url(#linearGradient-4)" fill-rule="nonzero" x="260" y="231" width="80" height="6"></rect>
                    <rect id="矩形" fill="url(#linearGradient-5)" fill-rule="nonzero" x="260" y="242" width="49" height="6"></rect>
                    <rect id="矩形" fill="url(#linearGradient-6)" fill-rule="nonzero" x="328" y="242" width="155" height="6"></rect>
                    <rect id="矩形" fill="url(#linearGradient-7)" fill-rule="nonzero" x="498" y="242" width="87" height="6"></rect>
                    <rect id="矩形" fill="url(#linearGradient-8)" fill-rule="nonzero" x="286" y="254" width="67" height="6"></rect>
                    <rect id="矩形" fill="url(#linearGradient-9)" fill-rule="nonzero" x="307" y="265" width="80" height="6"></rect>
                    <rect id="矩形" fill="url(#linearGradient-10)" fill-rule="nonzero" x="393" y="265" width="67" height="6"></rect>
                    <rect id="矩形" fill="url(#linearGradient-11)" fill-rule="nonzero" x="307" y="276" width="62" height="6"></rect>
                    <rect id="矩形" fill="url(#linearGradient-12)" fill-rule="nonzero" x="375" y="277" width="128" height="6"></rect>
                    <rect id="矩形" fill="url(#linearGradient-13)" fill-rule="nonzero" x="260" y="292" width="80" height="6"></rect>
                    <rect id="矩形" fill="url(#linearGradient-14)" fill-rule="nonzero" x="260" y="303" width="49" height="6"></rect>
                    <rect id="矩形" fill="url(#linearGradient-15)" fill-rule="nonzero" x="328" y="303" width="155" height="6"></rect>
                    <rect id="矩形" fill="url(#linearGradient-16)" fill-rule="nonzero" x="498" y="303" width="87" height="6"></rect>
                    <rect id="矩形" fill="url(#linearGradient-17)" fill-rule="nonzero" x="286" y="315" width="67" height="6"></rect>
                    <rect id="矩形" fill="url(#linearGradient-18)" fill-rule="nonzero" x="307" y="327" width="80" height="6"></rect>
                    <rect id="矩形" fill="url(#linearGradient-19)" fill-rule="nonzero" x="393" y="326" width="67" height="6"></rect>
                    <rect id="矩形" fill="url(#linearGradient-20)" fill-rule="nonzero" x="307" y="337" width="62" height="6"></rect>
                    <rect id="矩形" fill="url(#linearGradient-21)" fill-rule="nonzero" x="375" y="338" width="128" height="6"></rect>
                    <rect id="矩形" fill="url(#linearGradient-22)" fill-rule="nonzero" x="260" y="353" width="80" height="6"></rect>
                    <rect id="矩形" fill="url(#linearGradient-23)" fill-rule="nonzero" x="260" y="364" width="49" height="6"></rect>
                    <rect id="矩形" fill="url(#linearGradient-24)" fill-rule="nonzero" x="328" y="364" width="155" height="6"></rect>
                    <rect id="矩形" fill="url(#linearGradient-25)" fill-rule="nonzero" x="498" y="364" width="87" height="6"></rect>
                    <rect id="矩形" fill="url(#linearGradient-26)" fill-rule="nonzero" x="286" y="376" width="67" height="6"></rect>
                    <rect id="矩形" fill="url(#linearGradient-27)" fill-rule="nonzero" x="307" y="388" width="80" height="6"></rect>
                    <rect id="矩形" fill="url(#linearGradient-28)" fill-rule="nonzero" x="393" y="388" width="67" height="6"></rect>
                    <rect id="矩形" fill="url(#linearGradient-29)" fill-rule="nonzero" x="307" y="399" width="62" height="6"></rect>
                    <rect id="矩形" fill="url(#linearGradient-30)" fill-rule="nonzero" x="375" y="399" width="128" height="6"></rect>
                    <g id="编组" opacity="0.52" transform="translate(439.000000, 18.000000)" fill="#207DFE" fill-rule="nonzero">
                        <rect id="矩形" x="0.106578947" y="0.237323492" width="40.014812" height="2.93164313"></rect>
                        <rect id="矩形" x="0.106578947" y="5.91447368" width="24.4197744" height="2.74550706"></rect>
                        <rect id="矩形" x="34.3783083" y="5.91447368" width="76.8545865" height="2.76877407"></rect>
                        <rect id="矩形" x="118.400075" y="5.91447368" width="43.2598872" height="2.76877407"></rect>
                        <rect id="矩形" x="12.8067293" y="11.5683569" width="33.5713534" height="2.88510911"></rect>
                        <rect id="矩形" x="23.5925188" y="17.2455071" width="40.014812" height="2.93164313"></rect>
                        <rect id="矩形" x="66.1987218" y="17.2455071" width="33.5246617" height="3.25738126"></rect>
                        <rect id="矩形" x="23.5224812" y="22.8993902" width="30.8865789" height="2.74550706"></rect>
                        <rect id="矩形" x="57.3973308" y="22.8993902" width="63.7575564" height="3.04797818"></rect>
                        <rect id="矩形" x="0.106578947" y="30.5542362" width="40.014812" height="2.93164313"></rect>
                        <rect id="矩形" x="0.106578947" y="36.2081194" width="24.4197744" height="2.74550706"></rect>
                        <rect id="矩形" x="34.3783083" y="36.2081194" width="76.8545865" height="2.76877407"></rect>
                        <rect id="矩形" x="118.400075" y="36.2081194" width="43.2598872" height="2.76877407"></rect>
                        <rect id="矩形" x="12.8067293" y="41.8620026" width="33.5713534" height="2.88510911"></rect>
                        <rect id="矩形" x="23.5925188" y="47.5391528" width="40.014812" height="2.93164313"></rect>
                        <rect id="矩形" x="66.1987218" y="47.5391528" width="33.5246617" height="3.25738126"></rect>
                        <rect id="矩形" x="23.5224812" y="53.1930359" width="30.8865789" height="2.74550706"></rect>
                        <rect id="矩形" x="57.3973308" y="53.1930359" width="63.7575564" height="3.04797818"></rect>
                        <rect id="矩形" x="0.106578947" y="60.8478819" width="40.014812" height="2.93164313"></rect>
                        <rect id="矩形" x="0.106578947" y="66.5250321" width="24.4197744" height="2.74550706"></rect>
                        <rect id="矩形" x="34.3783083" y="66.5250321" width="76.8545865" height="2.76877407"></rect>
                        <rect id="矩形" x="118.400075" y="66.5250321" width="43.2598872" height="2.76877407"></rect>
                        <rect id="矩形" x="12.8067293" y="72.1789153" width="33.5713534" height="2.88510911"></rect>
                        <rect id="矩形" x="23.5925188" y="77.8327985" width="40.014812" height="2.93164313"></rect>
                        <rect id="矩形" x="66.1987218" y="77.8327985" width="33.5246617" height="3.25738126"></rect>
                        <rect id="矩形" x="23.5224812" y="83.5099487" width="30.8865789" height="2.74550706"></rect>
                        <rect id="矩形" x="57.3973308" y="83.5099487" width="63.7575564" height="3.04797818"></rect>
                    </g>
                    <path d="M508.514081,498.375006 C510.147388,503.046042 511.688678,507.95063 510.676487,512.761797 C510.310177,514.426664 509.647521,516.009635 508.72112,517.432833 C504.120255,524.672939 493.216205,525.793988 485.716795,521.449924 C478.217385,517.105861 473.984589,508.791416 471.9142,500.430261 C471.097995,497.629738 470.824562,494.695075 471.109049,491.788845 C471.776174,486.72077 475.088797,482.446772 478.539445,478.709943 C483.14031,473.852066 491.582898,467.499456 497.771061,473.338252 C503.338108,478.569812 506.052618,491.391806 508.514081,498.375006 Z" id="路径" fill="url(#linearGradient-31)" fill-rule="nonzero"></path>
                    <path d="M317.41433,497.101804 C316.378905,499.030696 315.896336,501.201761 316.018587,503.381206 C316.305769,504.782599 316.868348,506.114917 317.674553,507.302914 C319.664923,510.827703 322.323252,513.942186 325.504907,516.47691 C328.715034,519.01561 332.781393,520.258577 336.883759,519.955092 C342.939863,519.301474 347.742165,514.562743 350.959471,509.450516 C354.303559,504.592874 356.06184,498.842106 355.998339,492.970004 C355.623303,486.705759 352.43017,480.934883 347.292689,477.236484 C342.726954,473.968394 333.216977,471.003769 328.059826,474.738729 C322.902674,478.473689 319.992905,491.07918 317.41433,497.101804 Z" id="路径" fill="url(#linearGradient-32)" fill-rule="nonzero"></path>
                    <path d="M456.052359,325.229248 C457.703259,324.729103 459.482456,325.057106 460.870578,326.117508 C461.827702,327.258619 462.385916,328.706118 462.453707,330.22271 C463.038534,333.28093 463.154705,336.417021 462.797866,339.513431 C462.41388,342.591188 460.969905,345.416624 458.736795,347.459758 C456.997841,348.799422 455.03782,349.792289 452.954932,350.388615 C451.391157,351.13104 449.611028,351.200026 447.99905,350.580672 C446.575563,349.566662 445.665155,347.934906 445.521108,346.139371 C443.70854,336.84865 446.484752,327.053782 456.052359,325.229248 Z" id="路径" fill="url(#linearGradient-33)" fill-rule="nonzero"></path>
                    <path d="M371.017017,322.178481 C370.123737,321.940506 369.188712,321.940506 368.295431,322.178481 C366.303807,323.172389 365.03945,325.301794 365.056518,327.633393 C364.910876,329.87373 365.047023,332.124629 365.461382,334.326976 C365.849407,338.01355 367.275767,341.491213 369.555008,344.307797 C371.917195,347.097484 375.777928,347.806849 378.889375,346.022879 C388.448667,339.019629 379.451687,324.131768 371.017017,322.178481 Z" id="路径" fill="url(#linearGradient-34)" fill-rule="nonzero"></path>
                    <path d="M433.532112,387.728442 C433.986641,389.815336 434.111042,391.96057 433.900784,394.08599 C433.048231,399.982847 427.172527,404.106039 421.273782,404.843146 C415.375036,405.580253 409.476291,403.599278 403.969259,401.410991 C402.277978,400.841241 400.713047,399.949516 399.360864,398.785048 C398.010766,397.374986 397.091459,395.608884 396.711037,393.694402 C396.050274,390.374624 395.848694,386.979859 396.111945,383.605249 L396.480617,371.719398 C396.367386,369.394289 396.826266,367.076898 397.817051,364.970261 C400.121249,361.031346 405.397861,360.363342 409.983214,360.063893 C415.997169,359.810512 425.052666,360.063893 429.015885,365.546126 C432.979105,371.02836 432.518265,381.347859 433.532112,387.728442 Z" id="路径" fill="url(#linearGradient-35)" fill-rule="nonzero"></path>
                    <path d="M452.921098,289.239445 C454.736165,294.32363 455.374891,299.753224 454.789238,305.119868 C454.269091,317.511539 452.974433,329.858542 450.912848,342.088559 C449.371632,351.266509 446.94305,361.121713 439.680657,366.913396 C437.60434,368.309945 435.644204,369.871928 433.819368,371.584109 C432.558373,372.938616 431.671007,374.620072 430.503419,376.091347 C424.595427,383.494426 412.686035,383.494426 404.559627,378.566825 C396.433218,373.639223 391.225778,365.185233 386.462022,356.964778 C381.207878,347.903596 376.000438,338.422049 375.066368,327.983006 C374.295761,319.715845 376.233956,311.004966 373.08147,303.321644 C371.87656,300.405536 384.115665,275.394285 404.559627,271.503981 C423.737078,267.854682 451.101371,285.079746 452.921098,289.239445 Z" id="路径" fill="url(#linearGradient-36)" fill-rule="nonzero"></path>
                    <path d="M478.713373,409.314138 C455.046437,389.679402 420.899764,390.169687 390.440838,394.325434 C377.860484,396.029757 365.046729,398.294405 353.983487,404.551372 C335.451389,415.057474 324.481508,435.369269 318.716485,455.914534 C315.658922,466.817532 314.04845,479.261426 320.163576,488.833651 C326.582123,498.732733 339.372538,502.141379 351.089305,503.448805 C352.884256,503.488891 354.63784,503.995806 356.177463,504.91966 C357.791469,506.415734 358.804006,508.449693 359.024964,510.639648 C362.292589,527.682879 355.663979,546.82733 364.416544,561.792688 C372.889027,576.244414 391.817908,580.049957 408.506132,581.334036 C430.095792,582.991665 453.505986,582.384646 471.034456,569.66059 C473.942156,567.705969 476.413656,565.170164 478.29325,562.212932 C481.187431,557.263391 481.350813,551.239893 481.420833,545.519904 C481.607555,533.052664 477.056221,507.978102 483.124666,496.981716 C488.212824,487.829735 502.707071,487.783041 507.795229,477.323634 C517.434721,457.432082 493.207621,421.314441 478.713373,409.314138 Z" id="路径" fill="#FFFFFF" fill-rule="nonzero"></path>
                    <path d="M393.155612,567.711895 L393.318706,594.396411 C393.434238,595.423983 393.239355,596.462762 392.759526,597.377003 C391.98451,598.34127 390.862019,598.95724 389.63744,599.090257 C382.461303,600.780042 374.958977,599.817804 367.596447,599.841273 C360.233916,599.864742 352.288907,601.179019 347,606.365719 C355.038206,612.350373 365.406327,613.99322 375.355063,615.166681 C390.080124,616.934697 404.836251,618.108158 419.623444,618.687066 C429.208571,619.399272 438.844565,618.894637 448.304695,617.185035 C456.621558,615.502936 464.418425,611.841592 471.044663,606.506535 C464.5442,599.465765 453.779994,599.60658 444.273942,599.60658 C435.024911,599.6034 425.783538,599.070571 416.594554,598.010673 C414.495687,598.039623 412.479059,597.189686 411.026058,595.66375 C410.251739,594.273217 409.941369,592.668902 410.14069,591.087249 C410.317684,585.162118 411.058889,579.26778 412.354109,573.485326 C412.63017,571.57732 413.392807,569.77406 414.567529,568.251687 C416.643067,566.465151 419.249616,565.424828 421.976658,565.294564 C432.76474,563.483736 443.342429,560.574278 453.547003,556.610948 C457.749826,555.20788 461.659616,553.035831 465.080081,550.203848 C474.259945,541.801863 473.86386,527.321347 471.743637,515 C454.849423,524.879462 435.77188,530.349234 416.245067,530.912139 C402.894655,531.287647 373.933815,525.514216 364.544258,538.469232 C359.884429,545.017147 364.847147,551.072209 369.996259,555.601771 C372.232977,557.526248 393.155612,567.453733 393.155612,567.711895 Z" id="路径" fill="url(#linearGradient-37)" fill-rule="nonzero"></path>
                    <rect id="矩形" fill="#207DFE" fill-rule="nonzero" x="347" y="447" width="134" height="95" rx="16.79"></rect>
                    <rect id="矩形" fill="url(#linearGradient-38)" fill-rule="nonzero" x="347" y="447" width="134" height="95" rx="16.79"></rect>
                    <rect id="矩形" fill="#207DFE" fill-rule="nonzero" x="347" y="456" width="134" height="95" rx="16.79"></rect>
                    <path d="M433.649924,508.145342 C429.68604,509.936712 425.512714,511.201568 421.232467,511.908839 C409.692079,514.072851 396.212906,513.602413 387.903827,505.063978 C386.601701,503.7665 385.545418,502.23552 384.787922,500.547781 C382.479845,494.831968 385.503426,487.940063 390.465793,484.317696 C395.42816,480.69533 401.729212,479.730934 407.799456,479.425149 C415.231465,479.0488 429.3569,477.755097 435.842598,482.859341 C443.597739,488.975025 442.397538,503.95845 433.649924,508.145342 Z" id="路径" fill="url(#linearGradient-39)" fill-rule="nonzero"></path>
                    <rect id="矩形" fill="#FFFFFF" fill-rule="nonzero" transform="translate(411.000000, 569.500000) rotate(180.000000) translate(-411.000000, -569.500000) " x="402" y="494" width="18" height="151" rx="3.91"></rect>
                    <path d="M468.133573,749.824852 C472.81742,753.698503 473.988382,760.412833 476.049275,766.258525 C478.906422,774.240595 484.19917,781.494888 484.901747,789.946492 C485.208337,792.452282 484.793928,794.99371 483.707366,797.271215 C481.576049,800.85609 477.706304,803.037043 473.543416,802.999524 C469.444707,802.914453 465.449138,801.695781 461.997732,799.478022 C455.893971,795.833821 450.854077,790.643924 447.384128,784.429473 C445.613513,781.388864 444.481823,778.017423 444.058596,774.522315 C443.098407,763.934334 454.058611,738.556047 468.133573,749.824852 Z" id="路径" fill="#207DFE" fill-rule="nonzero"></path>
                    <path d="M476.49391,794.571044 C477.168697,795.841681 477.168697,797.368787 476.49391,798.639423 C475.94954,799.228149 475.229189,799.620879 474.442873,799.757633 C471.19492,800.391473 467.829532,799.771648 465.012817,798.020839 C462.23318,796.300786 459.682211,794.230072 457.421621,791.858791 C453.922109,788.759551 450.824923,785.226223 448.203741,781.342862 C445.577369,777.39664 444.509318,772.601429 445.209698,767.900555 C447.708663,755.005458 458.977581,766.568221 463.126805,771.326559 C469.049187,778.115587 473.591037,786.013554 476.49391,794.571044 Z" id="路径" fill="#606161" fill-rule="nonzero"></path>
                    <path d="M376.867348,749.856756 C372.18315,753.728074 371.012101,760.438358 368.951054,766.280528 C366.093693,774.257789 360.80055,781.531174 360.09792,789.954222 C359.79201,792.466105 360.206317,795.013323 361.29239,797.297995 C363.429721,800.871701 367.298665,803.041795 371.4571,802.99939 C375.558061,802.926655 379.557198,801.707721 383.003647,799.48001 C389.113391,795.845024 394.15529,790.656579 397.618345,784.440527 C399.392736,781.40341 400.524771,778.033225 400.944125,774.539339 C401.880965,763.957738 390.919942,738.500891 376.867348,749.856756 Z" id="路径" fill="#207DFE" fill-rule="nonzero"></path>
                    <path d="M366.496583,795.585488 C365.834472,796.859191 365.834472,798.379982 366.496583,799.653684 C367.05011,800.242726 367.777686,800.635008 368.57046,800.771843 C371.817345,801.380222 375.172476,800.762095 377.997171,799.035128 C380.762052,797.305663 383.30319,795.235862 385.562106,792.873358 C389.073808,789.772044 392.178364,786.230255 394.800283,782.334114 C397.419908,778.394474 398.487327,773.6091 397.793264,768.916206 C395.271619,755.9979 384.030266,767.560141 379.858946,772.342055 C373.944644,779.135118 369.405128,787.031471 366.496583,795.585488 Z" id="路径" fill="#606161" fill-rule="nonzero"></path>
                    <path d="M425.530327,693.579821 C421.75562,695.365625 417.587546,696.16841 413.416342,695.913016 C408.799529,696.176935 404.167869,695.839661 399.638733,694.909742 C398.111738,694.609336 396.680623,693.944848 395.46796,692.973191 C394.456062,692.050036 393.656732,690.9198 393.124829,689.660054 C389.305526,681.260554 384.994166,663.854924 390.922287,656.785344 C397.693934,648.665828 424.569644,647.242579 433.09864,655.758739 C441.369891,663.738264 435.371476,687.816831 425.530327,693.579821 Z" id="路径" fill="#207DFE" fill-rule="nonzero"></path>
                    <path d="M425.530327,693.579821 C421.75562,695.365625 417.587546,696.16841 413.416342,695.913016 C408.799529,696.176935 404.167869,695.839661 399.638733,694.909742 C398.111738,694.609336 396.680623,693.944848 395.46796,692.973191 C394.456062,692.050036 393.656732,690.9198 393.124829,689.660054 C389.305526,681.260554 384.994166,663.854924 390.922287,656.785344 C397.693934,648.665828 424.569644,647.242579 433.09864,655.758739 C441.369891,663.738264 435.371476,687.816831 425.530327,693.579821 Z" id="路径" fill="url(#linearGradient-40)" fill-rule="nonzero"></path>
                    <rect id="矩形" fill="#FFFFFF" fill-rule="nonzero" transform="translate(414.000000, 733.500000) rotate(-180.000000) translate(-414.000000, -733.500000) " x="408" y="694" width="12" height="79"></rect>
                    <path d="M462.208685,778.905966 C464.921491,781.146346 467.564139,783.952717 471.048692,784.377211 C473.574408,784.660206 476.100125,783.57539 478.672613,783.57539 C482.05866,783.815644 485.249811,785.26165 487.676324,787.655241 C489.96819,789.484692 491.689352,791.940784 492.634212,794.730126 C494.528499,801.239021 488.775479,808.361072 482.063621,809.021394 C475.351764,809.681717 468.897156,805.059459 465.950487,798.975057 C465.315589,797.307908 464.483242,795.724232 463.471543,794.258467 C462.501014,793.206677 461.372481,792.315356 460.127308,791.617177 C450.195781,785.405806 439.24203,781.036974 427.784107,778.717302 C425.796275,778.316392 423.364104,778.127728 422.101246,779.707786 C421.489552,780.612363 421.156025,781.678782 421.142409,782.77357 C420.624611,787.471106 420.41368,792.197892 420.51098,796.923341 C420.449316,797.831558 420.618345,798.74063 421.002092,799.564631 C421.609127,800.413623 422.352045,801.15482 423.2004,801.757845 C425.976672,804.734832 426.472065,809.202051 424.416486,812.723918 C422.300837,816.104689 419.058461,818.613369 415.272457,819.798803 C410.782295,821.473193 405.12282,821.756188 401.778584,818.289494 C399.370805,815.556672 398.692587,811.690231 400.024615,808.290323 C401.372139,804.961393 403.862439,802.232507 407.040493,800.602281 C408.145299,800.180169 409.104228,799.442632 409.800072,798.479815 C410.18687,797.590861 410.332157,796.614134 410.221025,795.649861 L409.893617,785.131865 C410.09473,783.503781 409.502201,781.878195 408.303351,780.769019 C407.368896,780.27869 406.297664,780.120808 405.263137,780.320943 C388.074483,781.658435 371.613718,787.881094 357.789026,798.267569 C360.314742,800.248537 359.870403,804.540634 357.601935,806.804597 C355.103375,808.881764 351.893378,809.881673 348.668383,809.587385 C345.123632,809.624123 341.647962,808.598098 338.682449,806.639516 C335.663615,804.650303 333.891053,801.21836 334.005197,797.583663 C334.490284,793.900243 336.86259,790.746404 340.249329,789.282464 C343.594923,787.869884 347.275558,787.46841 350.843306,788.1269 C352.679169,788.520672 354.558122,788.671301 356.432622,788.574976 C358.53518,788.134455 360.535275,787.294074 362.32596,786.098766 C378.523271,776.876114 396.486946,771.247916 415.015208,769.5907 C430.543686,768.199306 449.650262,768.529467 462.208685,778.905966 Z" id="路径" fill="#FFFFFF" fill-rule="nonzero"></path>
                    <rect id="矩形" fill="#FFFFFF" fill-rule="nonzero" transform="translate(683.500000, 392.000000) rotate(-180.000000) translate(-683.500000, -392.000000) " x="584" y="318" width="199" height="148" rx="11.02"></rect>
                    <rect id="矩形" fill="#FFFFFF" fill-rule="nonzero" transform="translate(123.500000, 435.000000) rotate(-180.000000) translate(-123.500000, -435.000000) " x="9" y="393" width="229" height="84" rx="10.67"></rect>
                    <polygon id="路径" fill="#207DFE" fill-rule="nonzero" points="49 107.132399 107 77 107 85.7299475 58.143201 110.300525 58.143201 110.582137 107 135.270053 107 144 49 113.867601"></polygon>
                    <polygon id="路径" fill="#207DFE" fill-rule="nonzero" points="115 149 149.58445 58 158 58 123.41555 149"></polygon>
                    <polygon id="路径" fill="#207DFE" fill-rule="nonzero" points="225 115.131405 167 145 167 136.102475 216.209302 111.53503 216.209302 111.138027 167 86.5705821 167 78 225 107.868595"></polygon>
                    <rect id="矩形" fill="#207DFE" fill-rule="nonzero" transform="translate(408.500000, 635.000000) rotate(-180.000000) translate(-408.500000, -635.000000) " x="311" y="605" width="195" height="60" rx="12.55"></rect>
                    <rect id="矩形" fill="url(#linearGradient-41)" fill-rule="nonzero" transform="translate(408.500000, 635.000000) rotate(-180.000000) translate(-408.500000, -635.000000) " x="311" y="605" width="195" height="60" rx="12.55"></rect>
                    <g id="编组" opacity="0.52" transform="translate(606.000000, 356.000000)" fill="#207DFE" fill-rule="nonzero">
                        <rect id="矩形" x="0.399924812" y="0.251611442" width="53.2285714" height="3.91794959"></rect>
                        <rect id="矩形" x="0.399924812" y="7.82944208" width="32.4974436" height="3.68334183"></rect>
                        <rect id="矩形" x="45.9943985" y="7.82944208" width="102.231541" height="3.70680261"></rect>
                        <rect id="矩形" x="17.3023308" y="15.4541943" width="44.683985" height="3.89448881"></rect>
                        <rect id="矩形" x="31.6366917" y="23.0320249" width="53.2285714" height="3.91794959"></rect>
                        <rect id="矩形" x="88.3204511" y="23.0320249" width="44.6139474" height="4.36370433"></rect>
                        <rect id="矩形" x="31.5433083" y="30.6333163" width="41.1120677" height="3.68334183"></rect>
                        <rect id="矩形" x="76.6008271" y="30.6333163" width="84.8155263" height="4.08217502"></rect>
                        <rect id="矩形" x="0.399924812" y="40.9091362" width="53.2285714" height="3.91794959"></rect>
                        <rect id="矩形" x="0.399924812" y="48.4869669" width="32.4974436" height="3.68334183"></rect>
                        <rect id="矩形" x="45.9943985" y="48.4869669" width="102.231541" height="3.70680261"></rect>
                        <rect id="矩形" x="17.3023308" y="56.0882583" width="44.683985" height="3.89448881"></rect>
                        <rect id="矩形" x="31.6366917" y="63.6895497" width="53.2285714" height="3.91794959"></rect>
                        <rect id="矩形" x="88.3204511" y="63.6895497" width="44.6139474" height="4.36370433"></rect>
                        <rect id="矩形" x="31.5433083" y="71.2908411" width="41.1120677" height="3.68334183"></rect>
                        <rect id="矩形" x="76.6008271" y="71.2908411" width="84.8155263" height="4.08217502"></rect>
                    </g>
                    <g id="编组" opacity="0.52" transform="translate(44.000000, 412.000000)" fill="#207DFE" fill-rule="nonzero">
                        <rect id="矩形" x="0.0729515419" y="0.365405405" width="53.1330396" height="3.87769683"></rect>
                        <rect id="矩形" x="0.0729515419" y="7.88860165" width="32.4391189" height="3.64549941"></rect>
                        <rect id="矩形" x="45.5855947" y="7.88860165" width="102.048062" height="3.66871915"></rect>
                        <rect id="矩形" x="16.945022" y="15.4117979" width="44.6037885" height="3.85447709"></rect>
                        <rect id="矩形" x="31.2536564" y="22.9349941" width="53.1330396" height="3.87769683"></rect>
                        <rect id="矩形" x="87.8589868" y="22.9349941" width="44.5338767" height="4.31887192"></rect>
                        <rect id="矩形" x="31.1837445" y="30.4349706" width="41.0382819" height="3.64549941"></rect>
                        <rect id="矩形" x="76.1370925" y="30.4349706" width="84.663304" height="4.04023502"></rect>
                        <rect id="矩形" x="0.0729515419" y="40.6052174" width="53.1330396" height="3.87769683"></rect>
                        <rect id="矩形" x="0.0729515419" y="48.1284136" width="32.4391189" height="3.64549941"></rect>
                        <rect id="矩形" x="45.5855947" y="48.1284136" width="102.048062" height="3.66871915"></rect>
                    </g>
                    <g id="编组-23复制-4" transform="translate(62.000000, 650.000000)">
                        <path d="M8.06064213,49.1410906 C22.4279009,51.5635057 43.8469226,60.985768 47.5232558,95.2426229 C43.3088363,130.841746 47.5232558,154.225 47.5232558,154.225 L30.6655777,154.225 C30.6655777,154.225 18.0258592,144.104336 25.75023,124.559651 C28.559253,116.882513 6.61276512,127.527417 11.705115,108.156892 C16.7921547,88.8022005 11.5617433,78.1168342 0.899137986,59.24944 C-1.93820535,54.22869 2.347015,48.1788095 8.06064213,49.1410906" id="Fill-114" fill="#23A295"></path>
                        <path d="M45.3646848,100.16426 C45.3646848,100.16426 54.0180148,88.4134517 45.3646848,71.9605646 C41.5173896,65.0171444 42.5201889,57.1978984 53.4188026,53.3242562 C56.0747228,52.3817343 58.6425236,51.1566313 60.8225988,49.375142 C73.1593219,39.2987579 70.3113013,28.3746306 89.6817189,9.80326322 C104.11921,-4.03969821 126.658403,-2.47233869 121.150937,9.80326322 C115.643472,22.07711 92.5667498,63.8622479 94.1405632,77.9667284 C95.7143765,92.0694538 102.53306,118.446026 81.0283889,121.842264 C59.5254805,125.236747 50.6095545,150.830517 50.8721505,154.225 L43.2674419,154.225 L45.3646848,100.16426 Z" id="Fill-115" fill="#50C2B7"></path>
                        <path d="M42.6982478,154.935714 L39.5550388,154.699407 C42.927808,107.176879 21.9424733,75.2312574 17.3159522,68.8192079 C16.8303441,68.1437912 16.9627827,67.2056145 17.6108488,66.681858 C18.3118904,66.1175412 19.348443,66.2515664 19.8728998,66.9834148 C24.1127002,72.8805253 40.5951231,98.0755067 42.8218571,135.955272 C53.1238129,94.8359756 83.104376,41.5450717 88.5484846,32.0592591 C88.984649,31.3027219 89.9523336,31.0470159 90.7081164,31.4861249 C91.4586017,31.9217069 91.7234789,32.8669375 91.2943779,33.6181843 C85.2516469,44.2097051 45.8538177,114.624097 42.6982478,154.935714" id="Fill-116" fill="#23897F"></path>
                        <path d="M58.9896236,199 L22.0841421,199 C21.5564909,199 21.1102892,198.613423 21.0394635,198.092692 L16.3242451,163.948606 C16.2357131,163.316667 16.729722,162.753571 17.3689236,162.753571 L64.2006216,162.753571 C64.8469058,162.753571 65.3409148,163.327258 65.2435295,163.962727 L60.0307608,198.106813 C59.9528526,198.620484 59.5101922,199 58.9896236,199" id="Fill-117" fill="#E5EEEC"></path>
                        <path d="M70.5894867,164.885714 L10.9802807,164.885714 C10.3996659,164.885714 9.93023256,164.412868 9.93023256,163.828031 L9.93023256,154.570191 C9.93023256,153.985355 10.3996659,153.514286 10.9802807,153.514286 L70.5894867,153.514286 C71.1683368,153.514286 71.6395349,153.985355 71.6395349,154.570191 L71.6395349,163.828031 C71.6395349,164.412868 71.1683368,164.885714 70.5894867,164.885714" id="Fill-118" fill="#CAD8D5"></path>
                    </g>
                </g>
            </g>
        </g>
    </g>
</svg>